<svg width="21" height="21" viewBox="0 0 21 21" fill="none" xmlns="http://www.w3.org/2000/svg">
<path d="M20.1308 6.93291L20.1248 6.88071C20.1137 6.81539 20.0939 6.75231 20.0658 6.69364L17.1246 1.42303C17.1246 1.42303 16.7495 0.90625 16.6604 0.90625H4.12675L0.357375 6.51483L0.31281 6.56651L0.306776 6.5908C0.274934 6.64775 0.248783 6.7084 0.228789 6.77167L0.21347 6.8218C0.170039 6.98224 0.172147 7.15369 0.219505 7.31274L0.237145 7.36907C0.260819 7.43573 0.290064 7.49671 0.324416 7.55097L9.43729 20.4017L9.45586 20.4311C9.50274 20.4983 9.55984 20.5577 9.62947 20.612L9.68239 20.6487C9.73438 20.6849 9.7887 20.7138 9.86761 20.7458L9.91914 20.765C10.0083 20.7903 10.0858 20.8022 10.1615 20.8022C10.238 20.8022 10.3128 20.7908 10.4135 20.7619L10.4753 20.7376C10.5356 20.7138 10.5899 20.6844 10.6554 20.6394L10.6962 20.611C10.7663 20.5557 10.8225 20.4957 10.8536 20.4487L19.9781 7.58456C20.0588 7.46473 20.1114 7.32443 20.1313 7.17631L20.1382 7.10964L20.1419 7.05693L20.1308 6.93291ZM15.238 6.5908L16.5369 3.97436L17.8348 6.5908H15.238ZM14.4591 8.14113H17.5405L12.4045 15.3838L14.4591 8.14113ZM13.6969 5.80633L11.821 2.97336H15.103L13.6969 5.80633ZM7.68815 8.14113H12.6361L10.1615 16.8628L7.68815 8.14113ZM8.17882 6.5908L10.1615 3.59556L12.1441 6.5908H8.17882ZM6.78248 5.57172L5.92277 2.97336H8.50237L6.78248 5.57172ZM7.91933 15.3843L2.78286 8.14113H5.86474L7.91933 15.3843ZM4.43545 3.99244L5.29562 6.5908H2.71555L4.43545 3.99244Z" fill="white"/>
</svg>
